<svg xmlns="http://www.w3.org/2000/svg" width="980" height="520" viewBox="0 0 980 520">
<rect width="100%" height="100%" fill="white"/>
<text x="490.0" y="28" text-anchor="middle" font-size="20" font-family="Arial" font-weight="700">Adaptive Retrieval Budget: Reward vs Cost</text>
<line x1="70" y1="55" x2="70" y2="430" stroke="#333"/>
<line x1="70" y1="430" x2="890" y2="430" stroke="#333"/>
<line x1="890" y1="55" x2="890" y2="430" stroke="#333"/>
<line x1="70" y1="430" x2="890" y2="430" stroke="#eee"/>
<text x="60" y="434" text-anchor="end" font-size="12" font-family="Arial">0.00</text>
<line x1="70" y1="336.25" x2="890" y2="336.25" stroke="#eee"/>
<text x="60" y="340.25" text-anchor="end" font-size="12" font-family="Arial">0.25</text>
<line x1="70" y1="242.5" x2="890" y2="242.5" stroke="#eee"/>
<text x="60" y="246.5" text-anchor="end" font-size="12" font-family="Arial">0.50</text>
<line x1="70" y1="148.75" x2="890" y2="148.75" stroke="#eee"/>
<text x="60" y="152.75" text-anchor="end" font-size="12" font-family="Arial">0.75</text>
<line x1="70" y1="55.0" x2="890" y2="55.0" stroke="#eee"/>
<text x="60" y="59.0" text-anchor="end" font-size="12" font-family="Arial">1.00</text>
<text x="900" y="434" font-size="12" font-family="Arial">0.0</text>
<text x="900" y="340.25" font-size="12" font-family="Arial">1.1</text>
<text x="900" y="246.5" font-size="12" font-family="Arial">2.3</text>
<text x="900" y="152.75" font-size="12" font-family="Arial">3.4</text>
<text x="900" y="59.0" font-size="12" font-family="Arial">4.6</text>
<text x="172.5" y="482" text-anchor="middle" font-size="13" font-family="Arial">bm25_top2</text>
<rect x="126.5" y="193.75" width="37.72" height="236.25" fill="#4C78A8"/>
<text x="145.36" y="188.75" text-anchor="middle" font-size="11" font-family="Arial">0.63</text>
<rect x="172.5" y="231.25" width="37.72" height="198.75" fill="#59A14F"/>
<text x="191.36" y="226.25" text-anchor="middle" font-size="11" font-family="Arial">0.53</text>
<text x="377.5" y="482" text-anchor="middle" font-size="13" font-family="Arial">bm25_top5</text>
<rect x="331.5" y="103.75" width="37.72" height="326.25" fill="#4C78A8"/>
<text x="350.36" y="98.75" text-anchor="middle" font-size="11" font-family="Arial">0.87</text>
<rect x="377.5" y="178.74999999999997" width="37.72" height="251.25000000000003" fill="#59A14F"/>
<text x="396.36" y="173.74999999999997" text-anchor="middle" font-size="11" font-family="Arial">0.67</text>
<text x="582.5" y="482" text-anchor="middle" font-size="13" font-family="Arial">bm25_top10</text>
<rect x="536.5" y="55.0" width="37.72" height="375.0" fill="#4C78A8"/>
<text x="555.36" y="50.0" text-anchor="middle" font-size="11" font-family="Arial">1.00</text>
<rect x="582.5" y="205.0" width="37.72" height="225.0" fill="#59A14F"/>
<text x="601.36" y="200.0" text-anchor="middle" font-size="11" font-family="Arial">0.60</text>
<text x="787.5" y="482" text-anchor="middle" font-size="13" font-family="Arial">controller</text>
<rect x="741.5" y="105.625" width="37.72" height="324.375" fill="#4C78A8"/>
<text x="760.36" y="100.625" text-anchor="middle" font-size="11" font-family="Arial">0.86</text>
<rect x="787.5" y="180.25" width="37.72" height="249.75" fill="#59A14F"/>
<text x="806.36" y="175.25" text-anchor="middle" font-size="11" font-family="Arial">0.67</text>
<polyline points="172.5,348.4782608695652 377.5,266.9565217391304 582.5,103.91304347826082 787.5,267.77173913043475" fill="none" stroke="#D62728" stroke-width="3"/>
<circle cx="172.5" cy="348.4782608695652" r="4" fill="#D62728"/>
<text x="172.5" y="338.4782608695652" text-anchor="middle" font-size="11" font-family="Arial" fill="#D62728">cost=1.00</text>
<circle cx="377.5" cy="266.9565217391304" r="4" fill="#D62728"/>
<text x="377.5" y="256.9565217391304" text-anchor="middle" font-size="11" font-family="Arial" fill="#D62728">cost=2.00</text>
<circle cx="582.5" cy="103.91304347826082" r="4" fill="#D62728"/>
<text x="582.5" y="93.91304347826082" text-anchor="middle" font-size="11" font-family="Arial" fill="#D62728">cost=4.00</text>
<circle cx="787.5" cy="267.77173913043475" r="4" fill="#D62728"/>
<text x="787.5" y="257.77173913043475" text-anchor="middle" font-size="11" font-family="Arial" fill="#D62728">cost=1.99</text>
<rect x="70" y="490" width="12" height="12" fill="#4C78A8"/>
<text x="88" y="500" font-size="12" font-family="Arial">avg_coverage</text>
<rect x="245" y="490" width="12" height="12" fill="#59A14F"/>
<text x="263" y="500" font-size="12" font-family="Arial">avg_reward</text>
<line x1="420" y1="496" x2="438" y2="496" stroke="#D62728" stroke-width="3"/>
<text x="445" y="500" font-size="12" font-family="Arial">search_cost</text>
</svg>